<?xml version="1.0" encoding="UTF-8"?>
<svg id="Ebene_1" data-name="Ebene 1" xmlns="http://www.w3.org/2000/svg" viewBox="0 0 273.11 216.83">
  <defs>
    <style>
      .cls-1 {
        stroke-width: 0px;
      }
    </style>
  </defs>
  <path class="cls-1" d="M190.72,184.65v-19c1.7,0,3.34-.06,4.98,0,13.2.54,25.37-2.51,36.17-10.35,19.06-13.84,26.99-38.71,19.41-60.93-7.67-22.46-28.74-37.26-52.36-36.57-4.03.12-8.1.75-12.06,1.58-6.59,1.37-10.37-.38-13.13-6.54-8.36-18.66-22.61-29.69-42.84-32.8-28.53-4.39-57.03,17.31-60.42,45.9-.92,7.74-3.67,10.4-11.38,11-20.87,1.6-38.82,20.09-39.85,41.04-1.32,26.87,18.42,47.62,45.34,47.67,2.67,0,5.33,0,8.22,0v18.72c-25.33,2.71-49.83-7.39-63.8-30.74-22.16-37.04-1.48-84.92,40.69-94.38,2.14-.48,2.87-1.38,3.37-3.33C60.85,25.65,85.29,3.84,116.54,1c30.03-2.73,53.45,9.47,69.79,34.84,1.75,2.72,3.11,3.6,6.44,3.21,35.72-4.2,70.45,20.55,78.42,55.65,9.22,40.63-15.5,79.56-56.23,88.43-3.67.8-7.45,1.24-11.19,1.46-4.23.25-8.49.06-13.03.06Z"/>
  <path class="cls-1" d="M172.91,165.53v19.11h-31.51v31.56h-18.91v-31.39h-31.77v-19h31.48v-31.72h19.02v31.44h31.68Z"/>
</svg>