<?xml version="1.0" encoding="UTF-8"?>
<svg id="Ebene_1" data-name="Ebene 1" xmlns="http://www.w3.org/2000/svg" viewBox="0 0 273.11 216.83">
  <defs>
    <style>
      .cls-1 {
        stroke-width: 0px;
      }
    </style>
  </defs>
  <path class="cls-1" d="M123.29,216.83c-4.27-.27-8.53-.52-12.8-.81-18.13-1.25-36.11-3.42-53.45-9.26-5.59-1.89-11-4.22-15.82-7.71-1.24-.9-2.44-1.89-3.52-2.98-5.24-5.3-5.41-11.14-.47-16.77,3.84-4.37,8.77-7.2,13.96-9.61,10.46-4.85,21.55-7.58,32.85-9.53,3.36-.58,6.74-1.05,10.12-1.53,2.52-.36,4.27.73,4.59,2.75.34,2.13-1.02,3.7-3.67,4.04-10.7,1.4-21.28,3.33-31.54,6.76-5.98,2-11.84,4.3-17.01,7.98-1.83,1.3-3.52,2.91-4.93,4.65-1.64,2.03-1.61,3.94.17,5.82,1.63,1.72,3.54,3.3,5.59,4.48,7.99,4.56,16.8,6.92,25.7,8.82,25.1,5.36,50.53,6.59,76.11,5.8,16.49-.51,32.87-2.01,49.04-5.39,9.05-1.89,17.99-4.19,26.25-8.5,2.06-1.07,4.04-2.41,5.77-3.95,3.08-2.74,3.13-5.28.35-8.33-3.66-4-8.42-6.36-13.29-8.45-11.72-5.02-24.07-7.6-36.63-9.34-.86-.12-1.72-.25-2.58-.36-2.66-.36-4.04-1.83-3.74-3.98.28-2.06,2.04-3.29,4.53-2.81,9.45,1.81,18.94,3.47,28.3,5.69,7.16,1.7,13.99,4.53,20.37,8.31.92.55,1.83,1.12,2.7,1.73,4.21,2.92,7.73,6.4,9.21,11.51v3.62c-1.7,5.04-5.26,8.55-9.77,10.95-4.47,2.38-9.06,4.66-13.84,6.31-17.22,5.97-35.17,8.02-53.24,9.26-4.27.29-8.53.54-12.8.81h-26.53Z"/>
  <path class="cls-1" d="M136.51,187.69c-7.23-10.44-14.33-20.67-21.42-30.91-10.91-15.74-21.86-31.45-32.7-47.23-7-10.18-10.49-21.62-11.37-33.85-1.15-15.96,1.66-31.19,10.11-44.91C92.45,12.41,109.24,2.21,130.66.3c22.32-1.99,41.07,5.77,55.77,22.68,8.53,9.81,13.01,21.61,14.93,34.35,2.24,14.83.71,29.25-5.54,43-1.41,3.09-3.04,6.14-4.96,8.93-17.82,25.85-35.73,51.65-53.62,77.45-.19.27-.4.53-.73.96ZM137.1,89.13c13.17.02,24.08-10.87,24.08-24.04,0-13.17-10.94-24.08-24.09-24.03-13.12.06-23.92,10.84-23.98,23.94-.06,13.15,10.83,24.1,23.99,24.13Z"/>
</svg>
