<?xml version="1.0" encoding="UTF-8"?>
<svg id="Ebene_1" data-name="Ebene 1" xmlns="http://www.w3.org/2000/svg" viewBox="0 0 273.11 216.83">
  <defs>
    <style>
      .cls-1 {
        stroke-width: 0px;
      }
    </style>
  </defs>
  <g id="YLoOir.tif">
    <path class="cls-1" d="M206.76.96h3.82c6.75,2.81,5.01,8.98,5.33,14.32,11.29,0,22.31.14,33.32-.07,4.43-.08,7.69,1.2,9.58,5.32v190.02c-1.9,4.14-5.19,5.32-9.62,5.32-60.96-.09-121.93-.06-182.89-.06-6.53,0-9.02-2.52-9.02-9.12,0-5.73,0-11.46,0-17.19,0-.75,0-1.51,0-2.34-12.08,0-23.77.02-35.47-.01-3.42,0-5.99-1.76-7.04-4.71-1.12-3.14-.27-5.83,2.16-7.97,7.32-6.43,13.09-14.09,17.96-22.45,14.94-25.6,21.67-53.47,22.3-82.89.32-15.19.07-30.39.09-45.59,0-5.44,2.8-8.25,8.2-8.26,10.82,0,21.65,0,32.47,0,.85,0,1.71,0,2.74,0,.25-5.47-1.4-11.52,5.29-14.32h3.82c6.77,2.81,4.98,9.01,5.34,14.2h35.7c.24-5.36-1.41-11.4,5.29-14.2h3.82c6.77,2.81,4.98,9.01,5.34,14.2h36.18c.24-5.36-1.41-11.4,5.29-14.2ZM71.54,72.71c-1.69,36.49-11.15,70.33-33.65,100.13.98,0,1.45,0,1.91,0,54.75,0,109.51,0,164.26-.06,1.09,0,2.55-.63,3.21-1.46,4.93-6.22,10.21-12.25,14.41-18.94,11.45-18.25,17.77-38.42,20.84-59.64.95-6.58,1.39-13.23,2.08-20.02H71.54ZM71.72,58.08h172.66v-28.33h-28.54c0,2.19.01,4.25,0,6.3-.04,4.64-2.98,7.87-7.15,7.87-4.18,0-7.14-3.23-7.17-7.85-.02-2.11,0-4.23,0-6.27h-36.3c0,2.34.03,4.49,0,6.63-.07,4.28-3.06,7.43-7.05,7.49-4.09.06-7.19-3.13-7.26-7.52-.03-2.2,0-4.4,0-6.63h-35.82c0,2.22.02,4.28,0,6.33-.04,4.61-3.03,7.84-7.2,7.82-4.17-.03-7.09-3.26-7.12-7.9-.01-2.11,0-4.22,0-6.28h-29.03v28.35ZM244.37,201.38v-60.95c-.23.18-.39.24-.45.36-.31.64-.6,1.3-.9,1.94-7.04,15.09-15.67,29.1-27.61,40.89-2.53,2.5-5.31,3.61-8.94,3.6-43.93-.09-87.85-.06-131.78-.06h-2.95v14.22h172.62Z"/>
  </g>
</svg>
