<?xml version="1.0" encoding="UTF-8"?>
<svg id="Ebene_1" data-name="Ebene 1" xmlns="http://www.w3.org/2000/svg" viewBox="0 0 217.39 216.62">
  <defs>
    <style>
      .cls-1 {
        stroke-width: 0px;
      }
    </style>
  </defs>
  <g id="Wj0Zb9.tif">
    <g>
      <path class="cls-1" d="M0,59.81c1.26-3.41,2.07-7.08,3.88-10.17,5.1-8.7,13-13.33,23.09-13.4,24.06-.17,48.11-.07,72.17-.04,5.59,0,9.62,3.96,9.55,9.18-.07,5.13-4.08,8.91-9.6,8.91-23.56.02-47.12,0-70.68,0-6.69,0-10.25,3.5-10.25,10.14,0,41.46,0,82.91,0,124.37,0,6.57,3.5,10.1,10.05,10.1,41.6.01,83.21.01,124.81,0,6.48,0,10.02-3.63,10.02-10.17,0-23.59-.01-47.18.01-70.76,0-6.62,5.93-10.99,11.98-8.95,3.81,1.29,6.13,4.68,6.15,9.2.04,8.12.01,16.24.01,24.36,0,15.04,0,30.09,0,45.13,0,14.87-6.95,24.25-21.21,28.65-.13.04-.23.16-.34.24H21.23c-.5-.21-.99-.47-1.51-.62-7.17-2.16-12.76-6.43-16.24-13.03C1.9,199.97,1.13,196.54,0,193.31c0-44.5,0-89,0-133.49Z"/>
      <path class="cls-1" d="M217.39,25.49c-1.17,7.23-5.5,12.48-10.7,17.26-2.86,2.62-5.5,5.47-8.04,8.02-10.67-10.65-21.25-21.21-32.01-31.95.23-.24.78-.84,1.36-1.42,3.45-3.45,6.87-6.92,10.36-10.33,6.5-6.36,14.25-8.64,22.97-5.97,8.7,2.66,13.93,8.77,15.71,17.73.05.26.23.49.36.73v5.93Z"/>
      <path class="cls-1" d="M156.37,29.08c10.71,10.69,21.3,21.26,31.95,31.9-.34.36-.81.88-1.31,1.37-22.96,22.92-45.91,45.86-68.94,68.72-1.31,1.3-3.24,2.34-5.05,2.73-9.87,2.13-19.8,4.02-29.71,5.98-4.08.81-6.74-1.76-5.94-5.79,2.04-10.24,4.09-20.47,6.23-30.69.25-1.17.85-2.46,1.69-3.29,23.57-23.61,47.2-47.17,70.82-70.74.1-.1.23-.17.25-.18Z"/>
    </g>
  </g>
</svg>
