<?xml version="1.0" encoding="UTF-8"?>
<svg id="Ebene_1" data-name="Ebene 1" xmlns="http://www.w3.org/2000/svg" viewBox="0 0 226.22 163.14">
  <defs>
    <style>
      .cls-1 {
        stroke-width: 0px;
      }
    </style>
  </defs>
  <path class="cls-1" d="M71.82,71.11c2.88-7.05,7.19-13.1,12.68-18.26-4.11-7.42-8.12-14.66-12.63-22.78-.49.97-.67,1.6-1.06,2.07-6.93,8.33-13.88,16.65-20.83,24.97-3.26,3.91-7.06,6.43-12.49,4.96-7.39-2-10.47-10.03-6-16.27,2.22-3.1,4.93-5.84,7.4-8.77,8.72-10.37,17.46-20.73,26.15-31.12,6.69-8,16.51-7.94,22.67.55,3.97,5.47,7.56,11.25,10.9,17.13,1.86,3.28,4.04,4.47,7.77,4.2,4.83-.35,9.7-.09,14.72-.09.06-1.32.08-2.49.18-3.65.37-4.09,2.99-7.27,6.81-8.34,3.64-1.02,7.63.31,9.94,3.56,1.14,1.61,2.28,3.38,2.76,5.25.74,2.85,2.34,3.41,5,3.27,6.19-.32,11.13,2.22,14.88,7.13,2.1,2.74,3.22,5.78,3.26,9.29.01,1.07.65,2.45,1.47,3.15,6.35,5.36,11.55,11.63,15.64,18.86.5.88,1.61,1.91,2.51,1.99,17.66,1.43,30.24,10.46,37.83,26.1,14.53,29.95-5.18,65.07-38.33,68.42-6.95.7-14.02.29-21.03.29-38.11,0-76.22.1-114.32-.09-29-.15-52.7-27.92-46.78-57.01,6.28-30.86,37.54-46,62.36-38.09,2.87.91,5.63,2.16,8.56,3.3h0ZM112.96,149.4v-.11c21.68,0,43.36,0,65.05,0,11.83,0,21.2-4.75,28.18-14.38,10.36-14.3,8.84-32.92-4.13-44.88-5.59-5.16-12.08-8.59-20.16-6.99-4.67.93-6.72-.02-8.92-4.26-1.25-2.4-2.31-4.9-3.66-7.25-10.2-17.78-32.78-27.33-53.15-22.16-19.08,4.84-30.73,17.26-35.29,36.29-.57,2.37.19,5.03.16,7.56-.05,3.96-2.96,7.11-6.71,7.46-3.58.34-7.13-2.16-7.94-5.86-.37-1.68-.41-3.49-.32-5.22.33-6.1.26-6.29-5.45-8.46-13.63-5.18-30.07-.15-39.64,12.4-8.45,11.08-10.36,23.34-4.28,35.96,6.08,12.6,16.33,19.81,30.74,19.88,21.84.11,43.68.03,65.53.03h0Z"/>
  <path class="cls-1" d="M212.76,36.21c.05,11.75-9.45,21.22-21.29,21.23-11.93.01-21.29-9.38-21.34-21.4-.05-12.27,9.17-21.61,21.32-21.61,11.91,0,21.26,9.55,21.31,21.77h0Z"/>
</svg>
