<?xml version="1.0" encoding="UTF-8"?>
<svg id="Ebene_1" data-name="Ebene 1" xmlns="http://www.w3.org/2000/svg" viewBox="0 0 273.11 216.83">
  <defs>
    <style>
      .cls-1 {
        stroke-width: 0px;
      }
    </style>
  </defs>
  <path class="cls-1" d="M28.77,114.74c0-4.21,0-8.42,0-12.62.13-.67.32-1.34.37-2.02.65-9.71,2.68-19.14,5.99-28.27C53.98,19.93,108.71-9.32,162.38,3.8c55.37,13.53,90.86,68.91,80,124.83-4.16,21.44-13.88,39.99-29.24,55.49-16.1,16.25-35.45,26.48-58.05,30.38-4.06.7-8.17,1.11-12.26,1.66h-12.63c-2.84-.34-5.69-.63-8.53-1.03-21.25-3-40.03-11.49-56.11-25.68-18.94-16.72-30.79-37.53-35.14-62.48-.71-4.05-1.11-8.15-1.66-12.23ZM64.66,170.38c7.04-24.85,22.56-41.82,46.29-51.44-24.99-17.94-24.4-50.17-8.05-67.94,16.81-18.27,45.19-20.04,63.42-3.72,9.86,8.83,15.27,19.88,15.46,33.09.24,16.1-6.66,28.86-19.79,38.59,11.63,4.41,21.4,11.01,29.52,20.03,8.14,9.04,13.66,19.52,16.81,31.4,28.56-31.65,34.31-87.41-2.1-126.49C169.21,4.15,108.36,2.83,69.79,40.81c-38.29,37.72-35.63,95.14-5.14,129.57ZM138.19,203.54c2.15-.18,6.07-.38,9.97-.84,18.07-2.15,34.11-9.14,48.23-20.56.54-.44.9-1.51.82-2.23-.69-6.03-2.47-11.77-5.04-17.26-10.14-21.67-31.61-35.6-55.93-35.5-13.06.05-25.01,3.92-35.55,11.67-14.06,10.33-22.45,24.19-24.94,41.51-.08.57.4,1.44.88,1.83,17.45,14.03,37.41,21.08,61.55,21.38ZM136.57,114.07c18.01-.06,32.63-14.65,32.7-32.63.07-17.96-14.79-32.8-32.79-32.77-18.02.03-32.88,14.97-32.7,32.86.18,18.04,14.85,32.59,32.79,32.54Z"/>
</svg>