<?xml version="1.0" encoding="UTF-8"?>
<svg id="Ebene_1" data-name="Ebene 1" xmlns="http://www.w3.org/2000/svg" viewBox="0 0 244.66 214.97">
  <defs>
    <style>
      .cls-1 {
        stroke-width: 0px;
      }
    </style>
  </defs>
  <g id="KmvpBN.tif">
    <g>
      <path class="cls-1" d="M0,138.46c1.91-4.9,5.54-6.49,10.71-6.47,42.96.13,85.92.02,128.88.09,18.27.03,31.75,8.32,39.09,24.97,6.86,15.58,4.47,30.6-6.72,43.46-11.13,12.79-25.62,17.23-41.99,12.79-16.33-4.43-26.32-15.54-29.92-32.12-.53-2.44-.72-4.99-.76-7.49-.09-4.86,3.68-8.66,8.37-8.66,4.6,0,8.25,3.66,8.41,8.45.38,10.92,6.61,19.86,16.6,23.18,9.82,3.26,18.68,1.17,25.81-6.26,7.21-7.51,8.94-16.59,5.01-26.2-3.89-9.51-11.37-14.64-21.71-15.28-3.35-.21-6.73-.06-10.09-.06-40.37,0-80.73-.04-121.1.05-5.16.01-8.81-1.68-10.6-6.66v-3.78Z"/>
      <path class="cls-1" d="M244.66,81.79c-.48,2.25-.85,4.52-1.45,6.74-4.94,18.09-21.17,30.58-40.02,30.6-43.73.06-87.47.02-131.2.01-5.27,0-9.04-3.58-9-8.46.04-4.87,3.8-8.32,9.14-8.32,43.45,0,86.91,0,130.36,0,13.12,0,23.16-8.64,25.15-21.57,2.03-13.16-8.67-26.57-21.97-27.54-14.83-1.08-26.42,9.18-27.14,24-.27,5.49-3.79,9-8.86,8.82-4.86-.18-8.15-3.97-7.91-9.41.13-2.85.4-5.74,1.06-8.51,4.46-18.88,22.16-33.14,43.7-31.73,18.8,1.23,35.17,16.54,37.76,35.83.05.39.25.77.38,1.15v8.39Z"/>
      <path class="cls-1" d="M36.65,72.62c1.79-4.99,5.44-6.69,10.6-6.67,22.92.13,45.83.08,68.75.04,12-.02,21.75-7.53,24.51-18.77,3.27-13.31-4.87-26.45-18.46-29.8-12.76-3.15-26.22,5.07-29.39,18.02-.48,1.95-.66,4-.8,6.01-.33,4.88-3.86,8.43-8.48,8.37-4.77-.06-8.37-3.93-8.34-8.96.1-16.97,11.23-32.63,27.41-38.33,3.2-1.13,6.6-1.71,9.9-2.54,2.8,0,5.61,0,8.41,0,2.37.53,4.78.95,7.12,1.61,18.34,5.21,31.07,22.59,30.16,41.14-.97,19.78-14.79,35.86-34,39.37-2.87.52-5.85.64-8.78.65-22.63.05-45.27-.07-67.9.1-5.17.04-8.8-1.58-10.71-6.47v-3.78Z"/>
    </g>
  </g>
</svg>
